<svg xmlns="http://www.w3.org/2000/svg" xmlns:xlink="http://www.w3.org/1999/xlink" width="500" zoomAndPan="magnify" viewBox="0 0 375 374.999991" height="500" preserveAspectRatio="xMidYMid meet" version="1.0"><defs><g/><clipPath id="7eadd3a45f"><path d="M 0.238281 33 L 1 33 L 1 34 L 0.238281 34 Z M 0.238281 33 " clip-rule="nonzero"/></clipPath><clipPath id="ceba4815af"><rect x="0" width="123" y="0" height="44"/></clipPath></defs><g transform="matrix(1, 0, 0, 1, 132, 143)"><g clip-path="url(#ceba4815af)"><g clip-path="url(#7eadd3a45f)"><g fill="#2e282a" fill-opacity="1"><g transform="translate(0.251744, 33.424536)"><g/></g></g></g><g fill="#2e282a" fill-opacity="1"><g transform="translate(11.275251, 33.424536)"><g/></g></g><g fill="#2e282a" fill-opacity="1"><g transform="translate(22.298757, 33.424536)"><g/></g></g><g fill="#2e282a" fill-opacity="1"><g transform="translate(33.322264, 33.424536)"><g/></g></g><g fill="#2e282a" fill-opacity="1"><g transform="translate(44.345771, 33.424536)"><g/></g></g><g fill="#2e282a" fill-opacity="1"><g transform="translate(55.369277, 33.424536)"><g/></g></g><g fill="#2e282a" fill-opacity="1"><g transform="translate(66.392784, 33.424536)"><g/></g></g><g fill="#2e282a" fill-opacity="1"><g transform="translate(77.416291, 33.424536)"><g/></g></g><g fill="#2e282a" fill-opacity="1"><g transform="translate(88.439797, 33.424536)"><g/></g></g><g fill="#2e282a" fill-opacity="1"><g transform="translate(99.463304, 33.424536)"><g/></g></g><g fill="#2e282a" fill-opacity="1"><g transform="translate(110.486811, 33.424536)"><g/></g></g></g></g><path fill="#ffdeee" d="M 187.5 0 C 83.652344 0 0 83.652344 0 187.5 C 0 291.347656 83.652344 375 187.5 375 C 291.347656 375 375 291.347656 375 187.5 C 375 83.652344 291.347656 0 187.5 0 Z M 245.191406 86.539062 C 261.058594 86.539062 274.039062 99.519531 274.039062 115.382812 C 274.039062 131.25 261.058594 144.230469 245.191406 144.230469 C 229.328125 144.230469 216.347656 131.25 216.347656 115.382812 C 216.347656 99.519531 229.328125 86.539062 245.191406 86.539062 Z M 115.382812 100.960938 C 124.039062 100.960938 129.808594 106.730469 129.808594 115.382812 C 129.808594 106.730469 135.578125 100.960938 144.230469 100.960938 C 152.882812 100.960938 158.652344 106.730469 158.652344 115.382812 C 158.652344 131.25 145.671875 144.230469 129.808594 144.230469 C 113.941406 144.230469 100.960938 131.25 100.960938 115.382812 C 100.960938 106.730469 106.730469 100.960938 115.382812 100.960938 Z M 187.5 302.882812 C 124.039062 302.882812 72.117188 258.171875 72.117188 201.921875 C 72.117188 193.269531 77.882812 187.5 86.539062 187.5 C 95.191406 187.5 100.960938 193.269531 100.960938 201.921875 C 100.960938 242.308594 139.902344 274.039062 187.5 274.039062 C 235.097656 274.039062 274.039062 242.308594 274.039062 201.921875 C 274.039062 193.269531 279.808594 187.5 288.460938 187.5 C 297.117188 187.5 302.882812 193.269531 302.882812 201.921875 C 302.882812 258.171875 250.960938 302.882812 187.5 302.882812 Z M 187.5 302.882812 " fill-opacity="1" fill-rule="nonzero"/></svg>